<?xml version="1.0" standalone="no"?>
<!DOCTYPE svg PUBLIC "-//W3C//DTD SVG 20010904//EN"
 "http://www.w3.org/TR/2001/REC-SVG-20010904/DTD/svg10.dtd">
<svg version="1.0" xmlns="http://www.w3.org/2000/svg"
 width="374.000000pt" height="310.000000pt" viewBox="0 0 374.000000 310.000000"
 preserveAspectRatio="xMidYMid meet">

<g transform="translate(0.000000,310.000000) scale(0.100000,-0.100000)"
fill="#000000" stroke="none">
<path d="M800 2236 c0 -24 -25 -152 -55 -284 -49 -216 -55 -253 -55 -355 0
-102 2 -118 23 -148 12 -19 37 -43 54 -54 l32 -20 1 -512 0 -512 -47 -3 -48
-3 -3 -147 -3 -148 -56 0 -56 0 6 78 c4 42 10 110 13 150 l7 72 -72 0 -71 0 0
38 c0 33 5 40 40 60 40 22 40 23 40 82 0 48 3 60 15 60 29 0 75 30 90 60 21
41 22 318 0 360 -23 45 -53 60 -118 60 -105 0 -137 -43 -137 -184 l0 -84 -30
11 c-24 9 -36 8 -65 -6 -47 -22 -65 -66 -65 -157 0 -112 30 -160 100 -162 24
-1 29 -6 34 -32 5 -23 14 -35 36 -43 23 -9 30 -18 30 -37 0 -25 -1 -26 -70
-26 -38 0 -70 -3 -70 -7 0 -5 7 -71 15 -148 8 -77 15 -141 15 -142 0 -2 -56
-3 -125 -3 -104 0 -125 -2 -125 -15 0 -13 202 -15 1760 -15 1558 0 1760 2
1760 15 0 12 -19 15 -115 15 l-115 0 -2 383 -3 382 -77 3 -78 3 0 278 0 279
35 21 c62 36 75 71 75 197 0 99 -6 138 -55 352 -30 133 -55 261 -55 286 l0 46
-1205 0 -1205 0 0 -44z m2380 -11 l0 -25 -1175 0 -1175 0 0 25 0 25 1175 0
1175 0 0 -25z m-2125 -87 c-6 -28 -75 -415 -75 -423 0 -3 -58 -5 -130 -5 -71
0 -130 4 -130 9 0 7 44 199 95 419 5 21 9 22 125 22 120 0 120 0 115 -22z
m259 -25 c-3 -27 -16 -127 -28 -223 l-21 -175 -129 -3 -128 -3 6 28 c3 15 20
105 36 198 17 94 33 182 36 198 l6 27 114 0 115 0 -7 -47z m276 25 c0 -13 -7
-102 -15 -198 -8 -96 -15 -187 -15 -202 l0 -28 -130 0 c-128 0 -130 0 -130 23
0 12 11 110 25 217 14 107 25 198 25 203 0 4 54 7 120 7 118 0 120 0 120 -22z
m260 -111 c0 -74 -3 -175 -6 -225 l-7 -92 -123 0 c-112 0 -124 2 -124 18 0 9
7 98 15 197 8 99 15 192 15 208 l0 27 115 0 115 0 0 -133z m273 119 c3 -8 7
-108 8 -223 l2 -208 -133 -3 -133 -3 7 62 c3 34 6 136 6 225 l0 164 119 0 c93
0 120 -3 124 -14z m276 -153 c6 -93 14 -194 18 -225 l6 -58 -125 0 -125 0 -6
68 c-4 37 -7 138 -7 225 l0 157 113 0 114 0 12 -167z m261 155 c0 -7 11 -101
25 -208 14 -107 25 -203 25 -212 0 -16 -13 -18 -130 -18 -128 0 -130 0 -130
23 0 12 -7 101 -15 197 -8 96 -15 187 -15 203 l0 27 120 0 c89 0 120 -3 120
-12z m264 -15 c3 -16 19 -107 36 -203 17 -96 33 -185 36 -198 l5 -23 -128 3
-128 3 -21 165 c-12 91 -24 191 -28 223 l-7 57 114 0 115 0 6 -27z m270 10 c9
-31 96 -414 96 -424 0 -5 -57 -9 -129 -9 l-129 0 -6 28 c-3 15 -20 106 -36
202 -17 96 -34 185 -37 198 -5 22 -5 22 115 22 106 0 121 -2 126 -17z m-2214
-543 c0 -46 -6 -95 -14 -113 -45 -105 -179 -116 -234 -18 -18 31 -22 55 -22
125 l0 86 135 0 135 0 0 -80z m280 -10 c0 -60 -5 -101 -14 -119 -45 -86 -177
-86 -222 0 -9 18 -14 59 -14 119 l0 90 125 0 125 0 0 -90z m300 10 c0 -46 -6
-95 -14 -113 -45 -105 -179 -116 -234 -18 -18 31 -22 55 -22 125 l0 86 135 0
135 0 0 -80z m280 -10 c0 -60 -5 -101 -14 -119 -45 -86 -177 -86 -222 0 -9 18
-14 59 -14 119 l0 90 125 0 125 0 0 -90z m300 10 c0 -136 -41 -195 -136 -195
-49 0 -57 3 -91 38 l-38 37 -3 100 -4 100 136 0 136 0 0 -80z m280 -10 c0 -60
-5 -101 -14 -119 -45 -86 -177 -86 -222 0 -9 18 -14 59 -14 119 l0 90 125 0
125 0 0 -90z m300 10 c0 -135 -41 -195 -135 -195 -94 0 -135 60 -135 195 l0
80 135 0 135 0 0 -80z m280 -10 c0 -60 -5 -101 -14 -119 -45 -86 -177 -86
-222 0 -9 18 -14 59 -14 119 l0 90 125 0 125 0 0 -90z m300 10 c0 -135 -41
-195 -135 -195 -94 0 -135 60 -135 195 l0 80 135 0 135 0 0 -80z m-2236 -214
c19 -9 50 -16 70 -16 44 0 108 31 130 62 l15 22 20 -26 c28 -35 81 -58 135
-58 l46 0 0 -370 0 -370 -245 0 -245 0 0 411 c0 412 0 412 20 387 11 -14 35
-33 54 -42z m540 30 l36 -35 0 -515 0 -516 -405 0 -405 0 0 510 0 510 28 0
c15 0 40 7 56 15 15 8 32 12 37 9 5 -3 9 -172 9 -385 0 -330 -2 -379 -15 -379
-11 0 -15 -12 -15 -45 l0 -45 305 0 305 0 0 40 c0 27 -5 43 -15 46 -13 5 -15
57 -15 384 l0 379 28 29 c15 16 27 30 28 31 1 0 18 -14 38 -33z m266 24 c0 -5
-4 -10 -10 -10 -5 0 -10 5 -10 10 0 6 5 10 10 10 6 0 10 -4 10 -10z m290 0 c0
-5 -4 -10 -10 -10 -5 0 -10 5 -10 10 0 6 5 10 10 10 6 0 10 -4 10 -10z m309
-22 l29 -32 1 -378 c2 -335 0 -378 -14 -378 -11 0 -15 -11 -15 -45 l0 -45 305
0 305 0 0 40 c0 27 -5 43 -15 46 -13 5 -15 59 -15 395 l0 389 37 -20 c21 -11
50 -20 65 -20 l28 0 0 -269 c0 -230 -2 -270 -15 -275 -13 -5 -15 -41 -15 -241
l0 -235 -394 0 -393 0 -2 511 -2 512 38 37 c21 20 39 38 41 39 1 0 15 -13 31
-31z m282 8 c25 -31 79 -56 123 -56 44 0 109 31 130 62 15 21 16 -13 16 -390
l0 -412 -245 0 -245 0 0 373 0 372 44 -3 c49 -4 118 25 138 58 16 25 16 25 39
-4z m-815 -41 c36 -19 101 -19 134 0 33 19 119 19 158 -1 l32 -15 0 -475 0
-474 -255 0 -255 0 0 475 0 474 28 15 c35 20 122 20 158 1z m-214 -507 l3
-493 260 -3 c143 -1 270 0 283 3 l22 5 0 490 c0 483 0 490 20 490 20 0 20 -7
20 -509 0 -443 -2 -510 -15 -515 -12 -4 -15 -30 -15 -146 l0 -140 -290 0 -290
0 0 129 c0 137 -4 161 -26 161 -12 0 -14 81 -14 510 0 503 0 510 20 510 19 0
20 -8 22 -492z m-1111 132 l30 -30 -3 -156 -3 -156 -28 -24 c-43 -37 -57 -32
-57 20 0 38 4 48 30 66 17 12 30 28 30 36 0 17 -31 19 -48 2 -9 -9 -12 -1 -12
36 0 43 -2 48 -19 43 -13 -3 -23 3 -32 19 -7 13 -18 24 -26 24 -22 0 -15 -39
12 -66 24 -24 26 -31 23 -115 l-3 -88 -25 12 c-21 11 -26 23 -34 77 -4 36 -9
114 -10 173 -1 108 -1 109 27 133 42 36 109 34 148 -6z m2611 -252 c3 -40 5
-43 35 -46 31 -3 32 -2 35 40 2 35 7 43 23 43 20 0 20 -8 23 -372 l2 -373 -80
0 -80 0 0 375 c0 365 1 375 19 375 16 0 20 -8 23 -42z m-2838 11 c25 -20 26
-25 26 -116 0 -109 -11 -133 -63 -133 -56 0 -67 21 -67 129 0 101 3 111 35
129 28 16 39 15 69 -9z m136 -235 c0 -42 -4 -55 -19 -64 -11 -5 -22 -10 -25
-10 -3 0 -6 31 -6 69 0 67 0 68 25 63 23 -4 25 -9 25 -58z m988 49 c3 -10 -56
-13 -272 -13 -240 0 -276 2 -276 15 0 13 34 15 272 13 206 -2 272 -6 276 -15z
m1542 2 c0 -13 -37 -15 -275 -15 -238 0 -275 2 -275 15 0 13 37 15 275 15 238
0 275 -2 275 -15z m-2604 -123 c-2 -15 -6 -26 -10 -24 -3 1 -12 2 -20 2 -25 0
-26 52 -3 77 l22 22 7 -25 c3 -14 5 -37 4 -52z m1214 -277 l0 -125 -450 0
-450 0 0 125 0 125 450 0 450 0 0 -125z m1480 0 l0 -125 -390 0 -390 0 0 125
0 125 390 0 390 0 0 -125z"/>
<path d="M2000 1172 c0 -10 -7 -39 -16 -65 -14 -41 -20 -47 -52 -53 -21 -4
-40 -8 -43 -10 -7 -4 14 -114 24 -131 6 -9 263 39 275 52 5 5 -19 118 -28 128
-4 4 -25 4 -48 -1 l-41 -10 -23 54 c-23 53 -48 72 -48 36z m40 -51 c17 -34 18
-40 4 -45 -21 -8 -54 -8 -54 0 0 11 23 84 26 84 2 0 13 -18 24 -39z m114 -58
c3 -10 8 -34 11 -54 l7 -36 -104 -22 c-57 -12 -113 -24 -125 -27 -17 -5 -21 1
-31 48 -5 29 -9 55 -7 57 5 4 205 49 227 50 9 1 19 -7 22 -16z"/>
<path d="M1810 851 c0 -141 6 -165 35 -141 12 10 15 39 15 130 0 132 -4 150
-31 150 -18 0 -19 -9 -19 -139z"/>
<path d="M485 980 c-9 -15 14 -70 30 -70 21 0 24 12 10 41 -18 33 -31 43 -40
29z"/>
<path d="M316 642 c-3 -5 2 -19 11 -31 20 -29 40 -13 24 18 -12 22 -26 27 -35
13z"/>
</g>
</svg>
