<?xml version="1.0" encoding="UTF-8" standalone="no"?>
<svg
   xmlns:dc="http://purl.org/dc/elements/1.1/"
   xmlns:cc="http://creativecommons.org/ns#"
   xmlns:rdf="http://www.w3.org/1999/02/22-rdf-syntax-ns#"
   xmlns:svg="http://www.w3.org/2000/svg"
   xmlns="http://www.w3.org/2000/svg"
   xmlns:sodipodi="http://sodipodi.sourceforge.net/DTD/sodipodi-0.dtd"
   xmlns:inkscape="http://www.inkscape.org/namespaces/inkscape"
   version="1.1"
   id="svg2"
   xml:space="preserve"
   width="867.1333"
   height="453.04001"
   viewBox="0 0 867.1333 453.04001"
   sodipodi:docname="NIKE_logo.eps"><metadata
     id="metadata8"><rdf:RDF><cc:Work
         rdf:about=""><dc:format>image/svg+xml</dc:format><dc:type
           rdf:resource="http://purl.org/dc/dcmitype/StillImage" /></cc:Work></rdf:RDF></metadata><defs
     id="defs6" /><sodipodi:namedview
     pagecolor="#ffffff"
     bordercolor="#666666"
     borderopacity="1"
     objecttolerance="10"
     gridtolerance="10"
     guidetolerance="10"
     inkscape:pageopacity="0"
     inkscape:pageshadow="2"
     inkscape:window-width="640"
     inkscape:window-height="480"
     id="namedview4" /><g
     id="g10"
     inkscape:groupmode="layer"
     inkscape:label="ink_ext_XXXXXX"
     transform="matrix(1.3333333,0,0,-1.3333333,0,453.04)"><g
       id="g12"
       transform="scale(0.1)"><path
         d="m 1090.1,1165.44 c -36.84,0 -64.2,26.92 -64.2,63.34 0,36.41 27.15,63.56 64.2,63.56 36.63,0 64.21,-27.58 64.21,-63.56 0,-35.77 -27.79,-63.34 -64.21,-63.34 z m 0,152.32 c -51.7,0 -92.205,-36.2 -92.205,-88.98 0,-52.79 40.715,-88.77 92.205,-88.77 51.5,0 92.22,36.2 92.22,88.77 0,52.78 -40.51,88.98 -92.22,88.98"
         style="fill:#231f20;fill-opacity:1;fill-rule:nonzero;stroke:none"
         id="path14" /><path
         d="m 1987.33,1628.95 h -448.88 l 51.03,780.19 -291.49,-780.19 H 881.176 l 661.344,1763.43 h 443.53 l -51.21,-790.87 297.02,790.87 h 416.81 L 1987.33,1628.95"
         style="fill:#231f20;fill-opacity:1;fill-rule:nonzero;stroke:none"
         id="path16" /><path
         d="m 2041.45,1628.95 661.35,1763.43 h 416.81 L 2458.26,1628.95 h -416.81"
         style="fill:#231f20;fill-opacity:1;fill-rule:nonzero;stroke:none"
         id="path18" /><path
         d="M 833.109,2236.8 C 250.641,1552.8 -298.793,642.68 186.52,223.551 656.77,-182.578 1244.58,57.8906 1645.36,218.199 2046.14,378.52 6476.09,2302.26 6476.09,2302.26 c 42.76,21.37 34.74,48.09 -18.7,34.73 C 6435.82,2331.6 1634.67,1030.45 1634.67,1030.45 1025.48,859.449 330.797,1232.18 833.109,2236.8"
         style="fill:#231f20;fill-opacity:1;fill-rule:nonzero;stroke:none"
         id="path20" /><path
         d="m 1090.32,1238.04 h -13.79 v 22.2 h 11.64 c 7.11,0 15.29,-0.87 15.29,-10.13 0,-9.91 -4.74,-12.07 -13.14,-12.07 z m 15.51,-15.51 c 12.93,0.65 23.06,7.32 23.06,25.21 0,23.05 -15.08,28.87 -40.29,28.87 h -36.2 v -95.66 h 24.13 v 40.72 h 4.09 l 21.98,-40.72 h 27.79 l -24.56,41.58"
         style="fill:#231f20;fill-opacity:1;fill-rule:nonzero;stroke:none"
         id="path22" /><path
         d="m 5280.1,3245.44 c -36.84,0 -64.2,26.92 -64.2,63.34 0,36.41 27.14,63.56 64.2,63.56 36.63,0 64.21,-27.58 64.21,-63.56 0,-35.76 -27.79,-63.34 -64.21,-63.34 z m 0,152.32 c -51.7,0 -92.21,-36.2 -92.21,-88.98 0,-52.79 40.72,-88.77 92.21,-88.77 51.5,0 92.22,36.2 92.22,88.77 0,52.78 -40.51,88.98 -92.22,88.98"
         style="fill:#231f20;fill-opacity:1;fill-rule:nonzero;stroke:none"
         id="path24" /><path
         d="m 5280.32,3318.04 h -13.79 v 22.19 h 11.64 c 7.11,0 15.29,-0.86 15.29,-10.12 0,-9.91 -4.74,-12.07 -13.14,-12.07 z m 15.51,-15.51 c 12.93,0.65 23.05,7.33 23.05,25.2 0,23.06 -15.07,28.88 -40.28,28.88 h -36.2 v -95.66 h 24.13 v 40.72 h 4.1 l 21.97,-40.72 h 27.79 l -24.56,41.58"
         style="fill:#231f20;fill-opacity:1;fill-rule:nonzero;stroke:none"
         id="path26" /><path
         d="m 3661.97,1746.51 -26.71,919.12 630.2,691.92 z m 1343.5,1351.97 112,293.9 h -835.21 -3.75 -432.84 l -436.74,-529.03 201.61,529.03 h -422.15 l -656,-1763.43 h 416.81 l 280.06,737.44 19.19,-737.44 1278.93,2.77 121.75,339.23 h -486.28 l 159.76,427.5 h 400.78 l 123.3,328.64 h -400.78 l 137.4,371.39 h 422.16"
         style="fill:#231f20;fill-opacity:1;fill-rule:nonzero;stroke:none"
         id="path28" /></g></g></svg>
