<?xml version="1.0" encoding="UTF-8" standalone="no"?>
<svg
   xmlns:dc="http://purl.org/dc/elements/1.1/"
   xmlns:cc="http://creativecommons.org/ns#"
   xmlns:rdf="http://www.w3.org/1999/02/22-rdf-syntax-ns#"
   xmlns:svg="http://www.w3.org/2000/svg"
   xmlns="http://www.w3.org/2000/svg"
   xmlns:sodipodi="http://sodipodi.sourceforge.net/DTD/sodipodi-0.dtd"
   xmlns:inkscape="http://www.inkscape.org/namespaces/inkscape"
   version="1.1"
   id="svg2"
   xml:space="preserve"
   width="666.66669"
   height="666.66669"
   viewBox="0 0 666.66669 666.66669"
   sodipodi:docname="tokopedia-seeklogo.com.eps"><metadata
     id="metadata8"><rdf:RDF><cc:Work
         rdf:about=""><dc:format>image/svg+xml</dc:format><dc:type
           rdf:resource="http://purl.org/dc/dcmitype/StillImage" /></cc:Work></rdf:RDF></metadata><defs
     id="defs6" /><sodipodi:namedview
     pagecolor="#ffffff"
     bordercolor="#666666"
     borderopacity="1"
     objecttolerance="10"
     gridtolerance="10"
     guidetolerance="10"
     inkscape:pageopacity="0"
     inkscape:pageshadow="2"
     inkscape:window-width="640"
     inkscape:window-height="480"
     id="namedview4" /><g
     id="g10"
     inkscape:groupmode="layer"
     inkscape:label="ink_ext_XXXXXX"
     transform="matrix(1.3333333,0,0,-1.3333333,0,666.66667)"><g
       id="g12"
       transform="scale(0.1)"><path
         d="M 5000,0 H 0 V 5000 H 5000 V 0"
         style="fill:#ffffff;fill-opacity:1;fill-rule:nonzero;stroke:none"
         id="path14" /><path
         d="m 190,0 h -10 v 5000 h 10 V 0"
         style="fill:#333436;fill-opacity:1;fill-rule:nonzero;stroke:none"
         id="path16" /><path
         d="M 5000,4810 H 0 v 10 h 5000 v -10"
         style="fill:#333436;fill-opacity:1;fill-rule:nonzero;stroke:none"
         id="path18" /><path
         d="m 4820,0 h -10 v 5000 h 10 V 0"
         style="fill:#333436;fill-opacity:1;fill-rule:nonzero;stroke:none"
         id="path20" /><path
         d="M 5000,170 H 0 v 10 h 5000 v -10"
         style="fill:#333436;fill-opacity:1;fill-rule:nonzero;stroke:none"
         id="path22" /><path
         d="m 308.383,302.672 h -23.485 v 7.289 h 54.969 v -7.289 H 316.383 V 240 h -8 v 62.672"
         style="fill:#040606;fill-opacity:1;fill-rule:nonzero;stroke:none"
         id="path24" /><path
         d="m 383.473,265.59 v 0.191 c 0,11.09 -8.297,20.199 -19.192,20.199 -11.195,0 -18.89,-9.109 -18.89,-19.988 v -0.211 c 0,-11.09 8.199,-20.082 19.089,-20.082 11.196,0 18.993,8.992 18.993,19.891 z m -45.977,0 v 0.191 c 0,14.59 11.395,26.989 26.984,26.989 15.497,0 26.887,-12.188 26.887,-26.778 v -0.211 c 0,-14.59 -11.496,-26.98 -27.086,-26.98 -15.492,0 -26.785,12.199 -26.785,26.789"
         style="fill:#040606;fill-opacity:1;fill-rule:nonzero;stroke:none"
         id="path26" /><path
         d="m 405.293,312.961 h 7.695 V 262.59 l 27.887,29.082 h 9.594 L 428.777,269.48 451.168,240 h -9.195 L 423.484,264.082 412.988,253.5 V 240 h -7.695 v 72.961"
         style="fill:#040606;fill-opacity:1;fill-rule:nonzero;stroke:none"
         id="path28" /><path
         d="m 502.473,265.59 v 0.191 c 0,11.09 -8.297,20.199 -19.192,20.199 -11.195,0 -18.89,-9.109 -18.89,-19.988 v -0.211 c 0,-11.09 8.199,-20.082 19.089,-20.082 11.192,0 18.993,8.992 18.993,19.891 z m -45.981,0 v 0.191 c 0,14.59 11.399,26.989 26.988,26.989 15.497,0 26.887,-12.188 26.887,-26.778 v -0.211 c 0,-14.59 -11.496,-26.98 -27.086,-26.98 -15.492,0 -26.789,12.199 -26.789,26.789"
         style="fill:#040606;fill-opacity:1;fill-rule:nonzero;stroke:none"
         id="path30" /><path
         d="m 568.57,265.68 v 0.199 c 0,12.211 -8.394,20 -18.187,20 -9.598,0 -18.695,-8.109 -18.695,-19.887 v -0.211 c 0,-11.992 9.097,-19.98 18.695,-19.98 9.992,0 18.187,7.39 18.187,19.879 z m -44.277,25.992 h 7.695 v -10.391 c 4.2,6.199 10.297,11.489 19.789,11.489 12.395,0 24.688,-9.79 24.688,-26.778 v -0.211 c 0,-16.879 -12.192,-26.871 -24.688,-26.871 -9.593,0 -15.793,5.192 -19.789,10.981 V 224 h -7.695 v 67.672"
         style="fill:#040606;fill-opacity:1;fill-rule:nonzero;stroke:none"
         id="path32" /><path
         d="m 628.57,268.891 c -0.898,9.39 -6.3,17.379 -16.492,17.379 -8.894,0 -15.691,-7.391 -16.789,-17.379 z M 613.477,245.5 c 7.093,0 12.093,2.898 16.293,7.289 l 4.796,-4.289 c -5.195,-5.801 -11.496,-9.699 -21.289,-9.699 -14.191,0 -25.789,10.89 -25.789,26.98 0,15 10.5,26.989 24.793,26.989 15.285,0 24.086,-12.188 24.086,-27.379 0,-0.7 0,-1.5 -0.101,-2.7 h -40.977 c 1.098,-10.89 9.098,-17.191 18.188,-17.191"
         style="fill:#040606;fill-opacity:1;fill-rule:nonzero;stroke:none"
         id="path34" /><path
         d="m 691.664,265.781 v 0.211 c 0,11.887 -9.09,19.887 -18.684,19.887 -9.996,0 -18.195,-7.399 -18.195,-19.887 v -0.211 c 0,-12.191 8.399,-19.98 18.195,-19.98 9.594,0 18.684,8.09 18.684,19.98 z m -44.773,-0.101 v 0.199 c 0,16.891 12.293,26.891 24.687,26.891 9.594,0 15.789,-5.188 19.789,-10.989 v 31.18 h 7.696 V 240 h -7.696 v 10.391 c -4.199,-6.192 -10.293,-11.481 -19.789,-11.481 -12.394,0 -24.687,9.781 -24.687,26.77"
         style="fill:#040606;fill-opacity:1;fill-rule:nonzero;stroke:none"
         id="path36" /><path
         d="m 716.988,291.672 h 7.696 V 240 h -7.696 z m -0.504,19.789 h 8.797 v -8.492 h -8.797 v 8.492"
         style="fill:#040606;fill-opacity:1;fill-rule:nonzero;stroke:none"
         id="path38" /><path
         d="m 776.664,258.98 v 4.809 c -3.797,1.09 -8.793,2.203 -15.094,2.203 -9.593,0 -15.086,-4.203 -15.086,-10.402 v -0.199 c 0,-6.489 5.996,-10.289 12.993,-10.289 9.492,0 17.187,5.699 17.187,13.878 z m -37.976,-3.992 v 0.211 c 0,11.09 8.992,16.883 22.089,16.883 6.594,0 11.192,-0.902 15.789,-2.203 v 1.601 c 0,9.2 -5.597,13.989 -15.293,13.989 -6.097,0 -10.89,-1.5 -15.691,-3.688 l -2.297,6.289 c 5.695,2.602 11.192,4.399 18.789,4.399 7.297,0 12.992,-2 16.692,-5.688 3.597,-3.609 5.394,-8.601 5.394,-15.199 V 240 h -7.594 v 7.699 c -3.597,-4.59 -9.496,-8.789 -18.586,-8.789 -9.699,0 -19.292,5.481 -19.292,16.078"
         style="fill:#040606;fill-opacity:1;fill-rule:nonzero;stroke:none"
         id="path40" /><path
         d="m 831.781,309.961 h 7.899 v -62.672 h 39.379 V 240 h -47.278 v 69.961"
         style="fill:#040606;fill-opacity:1;fill-rule:nonzero;stroke:none"
         id="path42" /><path
         d="m 934.164,265.59 v 0.191 c 0,11.09 -8.297,20.199 -19.187,20.199 -11.2,0 -18.891,-9.109 -18.891,-19.988 v -0.211 c 0,-11.09 8.195,-20.082 19.09,-20.082 11.191,0 18.988,8.992 18.988,19.891 z m -45.976,0 v 0.191 c 0,14.59 11.398,26.989 26.988,26.989 15.492,0 26.887,-12.188 26.887,-26.778 v -0.211 c 0,-14.59 -11.497,-26.98 -27.086,-26.98 -15.497,0 -26.789,12.199 -26.789,26.789"
         style="fill:#040606;fill-opacity:1;fill-rule:nonzero;stroke:none"
         id="path44" /><path
         d="m 997.766,268.281 v 0.211 c 0,10.59 -9.196,17.488 -18.993,17.488 -9.793,0 -17.89,-6.8 -17.89,-17.398 v -0.203 c 0,-10.387 8.297,-17.578 17.89,-17.578 9.797,0 18.993,7.09 18.993,17.48 z m -42.375,-37.269 3.496,5.988 c 5.898,-4.289 12.492,-6.59 19.886,-6.59 11.399,0 18.79,6.289 18.79,18.379 v 6.102 C 993.066,248.902 986.773,244 977.273,244 c -12.39,0 -24.285,9.289 -24.285,24.18 v 0.199 c 0,15.101 11.992,24.391 24.285,24.391 9.7,0 15.993,-4.801 20.192,-10.391 v 9.293 h 7.695 v -42.684 c 0,-7.988 -2.4,-14.09 -6.597,-18.289 -4.598,-4.59 -11.493,-6.89 -19.684,-6.89 -8.602,0 -16.594,2.402 -23.488,7.203"
         style="fill:#040606;fill-opacity:1;fill-rule:nonzero;stroke:none"
         id="path46" /><path
         d="m 1065.16,265.59 v 0.191 c 0,11.09 -8.29,20.199 -19.19,20.199 -11.19,0 -18.89,-9.109 -18.89,-19.988 v -0.211 c 0,-11.09 8.2,-20.082 19.09,-20.082 11.19,0 18.99,8.992 18.99,19.891 z m -45.98,0 v 0.191 c 0,14.59 11.4,26.989 26.99,26.989 15.5,0 26.89,-12.188 26.89,-26.778 v -0.211 c 0,-14.59 -11.5,-26.98 -27.09,-26.98 -15.49,0 -26.79,12.199 -26.79,26.789"
         style="fill:#040606;fill-opacity:1;fill-rule:nonzero;stroke:none"
         id="path48" /><path
         d="m 4316.88,274.281 c 10.5,0 18,5.399 18,14.391 v 0.199 c 0,8.598 -6.6,13.801 -17.89,13.801 h -21.6 v -28.391 z m -29.38,35.68 h 30.09 c 8.59,0 15.49,-2.602 19.89,-6.992 3.4,-3.399 5.39,-8.297 5.39,-13.789 v -0.211 c 0,-11.59 -7.99,-18.379 -18.98,-20.387 L 4345.37,240 h -9.7 l -20.28,27.191 h -20 V 240 h -7.89 v 69.961"
         style="fill:#040606;fill-opacity:1;fill-rule:nonzero;stroke:none"
         id="path50" /><path
         d="m 4356.7,274.789 v 0.191 c 0,19.192 14.1,36.18 35.08,36.18 11.79,0 19.1,-3.398 26.09,-9.289 l -5.1,-6 c -5.39,4.699 -11.39,8 -21.29,8 -15.48,0 -26.58,-13.101 -26.58,-28.691 v -0.2 c 0,-16.691 10.69,-29.082 27.68,-29.082 8.01,0 15.39,3.09 20.19,6.993 v 17.39 h -21.29 v 7.098 h 28.89 v -27.887 c -6.5,-5.801 -16.29,-10.691 -28.08,-10.691 -22,0 -35.59,15.988 -35.59,35.988"
         style="fill:#040606;fill-opacity:1;fill-rule:nonzero;stroke:none"
         id="path52" /><path
         d="m 4469.48,247.09 c 10.6,0 17.2,4.711 17.2,12.5 v 0.199 c 0,7.59 -6.41,11.992 -18.59,11.992 H 4446 V 247.09 Z m -2.8,31.691 c 9.5,0 16.09,4.301 16.09,12.489 v 0.191 c 0,6.91 -5.48,11.41 -15.48,11.41 H 4446 v -24.09 z m -28.48,31.18 h 29.79 c 7.99,0 14.29,-2.301 18.28,-6.191 2.9,-3.008 4.5,-6.7 4.5,-11.188 v -0.211 c 0,-9.09 -5.59,-13.801 -11.09,-16.191 8.29,-2.5 14.99,-7.289 14.99,-16.891 v -0.199 c 0,-12 -10.1,-19.09 -25.39,-19.09 h -31.08 v 69.961"
         style="fill:#040606;fill-opacity:1;fill-rule:nonzero;stroke:none"
         id="path54" /><path
         d="m 4574.79,319.762 h 7.09 l -46.38,-92.551 h -7.1 l 46.39,92.551"
         style="fill:#040606;fill-opacity:1;fill-rule:nonzero;stroke:none"
         id="path56" /><path
         d="m 4619,250.492 h 9.19 V 240 H 4619 v 10.492"
         style="fill:#040606;fill-opacity:1;fill-rule:nonzero;stroke:none"
         id="path58" /><path
         d="m 4678.48,258.98 v 4.809 c -3.8,1.09 -8.79,2.203 -15.1,2.203 -9.59,0 -15.08,-4.203 -15.08,-10.402 v -0.199 c 0,-6.489 6,-10.289 12.99,-10.289 9.49,0 17.19,5.699 17.19,13.878 z m -37.98,-3.992 v 0.211 c 0,11.09 8.99,16.883 22.09,16.883 6.59,0 11.19,-0.902 15.79,-2.203 v 1.601 c 0,9.2 -5.61,13.989 -15.29,13.989 -6.1,0 -10.9,-1.5 -15.7,-3.688 l -2.29,6.289 c 5.69,2.602 11.19,4.399 18.79,4.399 7.29,0 12.99,-2 16.69,-5.688 3.6,-3.609 5.4,-8.601 5.4,-15.199 V 240 h -7.6 v 7.699 c -3.59,-4.59 -9.49,-8.789 -18.59,-8.789 -9.69,0 -19.29,5.481 -19.29,16.078"
         style="fill:#040606;fill-opacity:1;fill-rule:nonzero;stroke:none"
         id="path60" /><path
         d="m 4703,291.672 h 7.69 V 240 H 4703 Z m -0.5,19.789 h 8.79 v -8.492 h -8.79 v 8.492"
         style="fill:#040606;fill-opacity:1;fill-rule:nonzero;stroke:none"
         id="path62" /><path
         d="m 2641.35,2315.92 c -44.53,-45.18 -97.82,-67.94 -159.57,-67.94 -49.93,0 -92.39,10.21 -135.71,35.37 v 103.62 c 34.86,-23.62 78.61,-46.13 121.82,-46.13 90.06,0 143.71,61.99 143.71,149.85 0,87.95 -55.5,151.79 -145.58,151.79 -40.29,0 -72.88,-14.47 -98.38,-43.46 -27.33,-31.44 -41.44,-76.35 -41.44,-135.72 v -409.21 h -6.79 c -49.63,0 -89.89,40.25 -89.89,89.88 v 334.67 c 0,142.01 86.84,256.67 236.07,256.67 73.64,0 133.49,-25.18 178.86,-75.79 42.66,-47.27 63.82,-107.23 63.82,-179.32 0,-64.18 -22.29,-119.04 -66.92,-164.28 z m 1046.71,3.44 c -44.38,-47.62 -101.47,-71.38 -170.74,-71.38 -73.04,0 -132.61,25.22 -177.92,75.82 -42.62,47.86 -63.82,107.84 -63.82,179.32 0,126.5 97.68,232.19 226.11,232.19 49.59,0 92.62,-10.42 136.11,-34.29 v -104.67 c -34.89,23.62 -78.65,46.13 -121.82,46.13 -90.06,0 -143.71,-61.98 -143.71,-149.86 0,-86.75 56.75,-151.78 145.55,-151.78 40.2,0 73.34,15.1 99.83,45.43 26.31,30.18 40,74.49 40,134.04 v 325.7 c 0,49.63 40.24,89.89 89.92,89.89 h 6.75 v -430.86 c 0,-75.9 -21.94,-138 -66.26,-185.68 z m 272.98,461.96 c -10.16,-11.36 -24.7,-16.6 -42.47,-16.6 -33.16,0 -56.89,24.5 -56.89,57.4 0,33.71 23.31,56.46 56.89,56.46 32.37,0 56.95,-23.98 56.95,-56.46 0,-16.06 -4.69,-29.82 -14.48,-40.8 z m 491.18,-261.01 c 0,38.1 -14.41,68.26 -43.42,91.14 -26.09,20.56 -58.72,31.03 -98.32,31.03 -87.49,0 -143.64,-68.39 -143.64,-152.71 0,-81.21 59.49,-148.93 142.75,-148.93 57.84,0 88.82,33.83 121.83,75.92 v -121.44 c -16.84,-12.59 -36.18,-26.32 -55.94,-34.38 -20.83,-8.71 -45.67,-12.96 -74.42,-12.96 -139.14,0 -230.91,115.26 -230.91,248.45 0,68.39 21.24,124.91 64,169.01 45.4,46.7 104.89,69.87 177.76,69.87 138.16,0 237,-79.31 237,-222.63 v -255.14 h -6.8 c -49.64,0 -89.89,40.24 -89.89,89.88 z m -1323.34,27.36 c -12.25,37.8 -27.54,56.38 -62.8,76.04 -83.74,46.83 -166.18,6.99 -204.55,-75.66 z m -73.76,-298.26 c -61.76,-13.1 -122.35,-3 -181.45,30.01 -57.65,32.23 -96.31,80.14 -115.64,143.39 -39.12,127.98 41.05,270.6 169.95,305.16 63.9,17.11 125.2,9.35 183.41,-23.2 96.71,-54.03 131.94,-137.64 125.8,-245.38 l -389.48,0.81 c 5.72,-43.95 32.98,-78.34 71.25,-99.72 38.81,-21.7 74.52,-26.88 107.66,-16.6 36.74,11.55 66.56,41.54 90.83,69.48 l 79.39,-57.83 c -32.4,-57.93 -76.49,-92.22 -141.72,-106.12 z m 815.14,476.36 h 96.65 v -468.23 h -6.77 c -49.61,0 -89.88,40.24 -89.88,89.88 v 378.35"
         style="fill:#4abd4f;fill-opacity:1;fill-rule:nonzero;stroke:none"
         id="path64" /><path
         d="M 591.453,2257.54 C 496.938,2257.54 450,2321.86 450,2411.66 v 340.75 c 0,49.64 40.234,89.88 89.898,89.88 h 6.774 V 2725.77 H 710 v -92.86 H 546.672 v -231.99 c 0,-39.46 17.621,-50.55 55.297,-50.55 H 710 v -92.83 z m 561.457,59.2 c -47.8,-45.81 -105.19,-68.76 -171.871,-68.76 -66.055,0 -123.156,22.97 -170.883,68.76 -47.929,45.95 -71.836,104.43 -71.836,174.91 0,137.51 105.039,243.66 242.719,243.66 66.091,0 123.311,-23.14 171.371,-69.22 48.23,-46.25 72.3,-104.56 72.3,-174.44 0,-70.48 -23.91,-128.96 -71.8,-174.91 z m 451.93,296.37 c -14.18,-23.78 -25.16,-40.85 -32.9,-51.15 -8.54,-11.19 -16.95,-20.15 -25.28,-26.32 67.18,-21.73 92.2,-68.27 92.2,-137.61 v -140.49 h -6.8 c -49.65,0 -89.9,40.24 -89.9,89.88 v 41.09 c 0,44.87 -20.1,75.36 -67.69,75.36 h -87.8 v -206.33 h -6.77 c -49.65,0 -89.9,40.24 -89.9,89.88 v 498.59 c 0,49.63 40.25,89.89 89.9,89.89 h 6.77 v -378.22 h 28.57 c 31.39,0 52.05,10.71 63.87,31.03 l 81.22,137.04 110.16,0.1 z m 499.03,-296.37 c -47.76,-45.81 -105.17,-68.76 -171.86,-68.76 -66.04,0 -123.12,22.97 -170.9,68.76 -47.9,45.95 -71.78,104.43 -71.78,174.91 0,137.51 104.99,243.66 242.68,243.66 66.11,0 123.34,-23.14 171.39,-69.22 48.21,-46.25 72.3,-104.56 72.3,-174.44 0,-70.48 -23.91,-128.96 -71.83,-174.91 z m -69.77,283.86 c -26.64,27.9 -60.52,41.88 -102.09,41.88 -88.96,0 -142.21,-64.87 -142.21,-150.83 0,-84.77 54.53,-150.81 142.21,-150.81 87.75,0 142.2,66.04 142.2,150.81 0,45.01 -13.49,81.12 -40.11,108.95 z m -951,0 c -26.64,27.9 -60.48,41.88 -102.061,41.88 -88.973,0 -142.207,-64.87 -142.207,-150.83 0,-84.77 54.523,-150.81 142.207,-150.81 87.711,0 142.231,66.04 142.231,150.81 0,45.01 -13.51,81.12 -40.17,108.95"
         style="fill:#4abd4f;fill-opacity:1;fill-rule:nonzero;stroke:none"
         id="path66" /></g></g></svg>
